<?xml version="1.0" encoding="utf-8"?>
<!-- Generator: Adobe Illustrator 16.0.4, SVG Export Plug-In . SVG Version: 6.00 Build 0)  -->
<!DOCTYPE svg PUBLIC "-//W3C//DTD SVG 1.1 Tiny//EN" "http://www.w3.org/Graphics/SVG/1.1/DTD/svg11-tiny.dtd">
<svg version="1.1" baseProfile="tiny" id="Layer_1" xmlns="http://www.w3.org/2000/svg" xmlns:xlink="http://www.w3.org/1999/xlink"
	 x="0px" y="0px" width="159.334px" height="123px" viewBox="0 0 159.334 123" xml:space="preserve">
<g>
	<path fill="#FFFFFF" d="M50.419,4.031c-4.527,0-8.197,3.67-8.197,8.197c0,4.528,3.67,8.198,8.197,8.198
		c4.528,0,8.198-3.67,8.198-8.198C58.617,7.701,54.947,4.031,50.419,4.031 M50.419,17.545c-2.935,0-5.315-2.381-5.315-5.316
		s2.38-5.315,5.315-5.315c2.936,0,5.315,2.38,5.315,5.315S53.355,17.545,50.419,17.545"/>
	<path fill="#FFFFFF" d="M105.549,4.031c-4.526,0-8.196,3.67-8.196,8.197c0,4.528,3.67,8.198,8.196,8.198
		c4.528,0,8.198-3.67,8.198-8.198C113.747,7.701,110.077,4.031,105.549,4.031 M105.549,17.545c-2.935,0-5.313-2.381-5.313-5.316
		s2.379-5.315,5.313-5.315c2.937,0,5.315,2.38,5.315,5.315S108.485,17.545,105.549,17.545"/>
	<path fill="#FFFFFF" d="M54.042,19.574c0,0,10.954,8.372,20.429,22.47h4.684l1.491,0.713c0,0,13.14-19.713,19.589-24.292
		c3.963-2.813-1.834-2.232-1.834-2.232S81.098,32.351,77.795,36.779c0,0-19.584-18.172-22.174-20.372L54.042,19.574z"/>
	<path fill="#FFFFFF" d="M76.541,37.721l-3.189-3.603l-1.342,3.041l23.995,27.947c0,0-2.831,3.049-0.281,6.168
		c2.553,3.131,11.119,12.562,11.119,12.562l0.926-0.995l-8.766-10.479l0.675-0.607l9.212,10.271l1.043-1.078l-8.877-10.723
		l0.737-0.652l9.49,10.271l1.016-0.946l-8.735-10.718l0.666-0.595l9.488,10.3l1.07-1.077l-11.033-12.464
		c0,0-2.154-2.565-5.045-1.401L76.541,37.721z"/>
	<path fill="#FFFFFF" d="M78.614,36.768L40.701,80.872c0,0,7.523,2.638,15.695-6.475c8.177-9.107,11.103-12.908,11.103-12.908
		s-2.049-1.766-1.471-4.1c0.578-2.333,15.285-17.646,15.285-17.646L78.614,36.768z"/>
	<path fill="#FFFFFF" d="M15.698,116.802c-0.724,1.064-2.259,2.643-5.457,2.643c-3.069,0-4.605-1.407-5.329-2.473
		c-1.067-1.532-1.067-3.409-1.067-5.157V97.275c0-0.683,0.044-1.366,0.087-2.046c0.084-1.153,0.298-4.947,4.134-6.184
		c0.854-0.299,1.578-0.383,2.516-0.383c2.217,0,3.411,0.682,4.179,1.321c0.639,0.511,1.108,1.149,1.407,1.875
		c0.596,1.364,0.639,2.731,0.639,4.181v3.836h-4.008v-4.646c0-0.639,0.213-3.115-2.43-3.115c-0.852,0-1.28,0.26-1.621,0.514
		c-0.98,0.853-0.895,2.131-0.895,3.281v16.631c0,0.34,0,0.68,0.043,1.022c0.043,0.809,0.17,2.428,2.387,2.428
		c0.257,0,0.939,0.043,1.535-0.424c1.023-0.726,0.981-2.004,0.981-3.113v-5.842h4.008v5.628
		C16.807,113.904,16.679,115.353,15.698,116.802"/>
	<path fill="#FFFFFF" d="M30.368,119.062l-0.768-5.543h-4.52l-0.681,5.543h-3.881l4.264-30.1H29.6l4.647,30.1H30.368z M27.17,94.205
		l-1.663,15.646h3.581L27.17,94.205z"/>
	<polygon fill="#FFFFFF" points="38.427,119.062 38.427,88.962 42.392,88.962 42.392,115.353 48.958,115.353 48.958,119.062 	"/>
	<path fill="#FFFFFF" d="M72.58,114.626c-0.043,0.342,0,2.388-1.279,3.498c-1.194,0.981-2.9,0.938-4.306,0.938h-6.055v-30.1h7.036
		c1.236,0,2.557,0,3.538,0.894c1.066,1.022,1.066,2.429,1.109,5.117c0,0.511,0.042,1.024,0.042,1.534
		c0,0.938-0.042,1.877-0.085,2.813c0,0.171,0.043,1.493-0.383,2.345c-0.299,0.641-0.981,1.066-1.621,1.236
		c-0.427,0.127-1.236,0.258-1.236,0.258c1.066,0.084,2.302,0.383,2.857,1.363c0.468,0.854,0.383,2.003,0.426,4.092
		c0,0.77,0.042,1.535,0.042,2.346C72.665,112.196,72.665,113.393,72.58,114.626 M68.615,94.206c-0.044-0.81-0.171-1.195-0.427-1.408
		c-0.298-0.256-0.724-0.256-1.449-0.256h-1.961v9.039h1.535c1.236,0,2.131-0.041,2.302-1.535c0.085-0.598,0.128-1.578,0.128-3.027
		C68.743,96.081,68.7,95.144,68.615,94.206 M68.743,107.081c-0.043-0.556-0.085-1.451-0.512-1.875
		c-0.341-0.301-0.853-0.344-1.236-0.344h-2.217v10.49h2.046c0.895,0,1.706,0.087,1.876-1.025c0.043-0.469,0.128-2.472,0.128-4.221
		C68.828,109.085,68.786,108.105,68.743,107.081"/>
	<path fill="#FFFFFF" d="M86.48,119.062l-0.768-5.543h-4.52l-0.681,5.543h-3.881l4.265-30.1h4.817l4.647,30.1H86.48z M83.282,94.205
		l-1.663,15.646H85.2L83.282,94.205z"/>
	<path fill="#FFFFFF" d="M102.81,119.062c-0.511-2.814-0.597-3.453-0.597-6.312v-2.131c0-1.021-0.041-2.088-0.17-3.11
		c-0.085-0.728-0.214-1.45-0.724-1.92c-0.385-0.298-0.812-0.384-1.279-0.384h-1.62v13.857h-3.966V88.963h6.48
		c0.512,0,1.023,0,1.492,0.042c1.066,0.083,3.07,0.212,3.666,2.939c0.172,0.77,0.256,2.26,0.256,4.307c0,1.15,0,2.346-0.084,3.537
		c-0.043,0.77-0.172,1.707-0.47,2.389c-0.724,1.579-2.431,1.535-3.071,1.621c0.641,0.128,1.877-0.042,2.73,1.279
		c0.682,1.065,0.725,2.302,0.725,4.773v3.285c0,3.408,0.086,4.048,0.768,5.926H102.81z M102.342,94.034
		c-0.043-0.639-0.17-0.979-0.427-1.192c-0.256-0.257-0.682-0.257-1.449-0.257h-2.004v9.294h1.875c1.023,0,1.621-0.255,1.876-1.321
		c0.172-0.727,0.214-2.516,0.214-4.605C102.427,95.313,102.385,94.674,102.342,94.034"/>
	<path fill="#FFFFFF" d="M123.362,114.626c-0.043,0.342,0,2.388-1.278,3.498c-1.195,0.981-2.899,0.938-4.306,0.938h-6.055v-30.1
		h7.035c1.236,0,2.557,0,3.537,0.894c1.066,1.022,1.066,2.429,1.109,5.117c0,0.511,0.041,1.024,0.041,1.534
		c0,0.938-0.041,1.877-0.084,2.813c0,0.171,0.043,1.493-0.383,2.345c-0.299,0.641-0.98,1.066-1.621,1.236
		c-0.426,0.127-1.235,0.258-1.235,0.258c1.065,0.084,2.301,0.383,2.856,1.363c0.467,0.854,0.383,2.003,0.426,4.092
		c0,0.77,0.041,1.535,0.041,2.346C123.446,112.196,123.446,113.393,123.362,114.626 M119.397,94.206
		c-0.043-0.81-0.17-1.195-0.426-1.408c-0.3-0.256-0.725-0.256-1.451-0.256h-1.959v9.039h1.535c1.234,0,2.131-0.041,2.301-1.535
		c0.086-0.598,0.127-1.578,0.127-3.027C119.524,96.081,119.483,95.144,119.397,94.206 M119.524,107.081
		c-0.041-0.556-0.084-1.451-0.512-1.875c-0.341-0.301-0.851-0.344-1.234-0.344h-2.217v10.49h2.045c0.896,0,1.707,0.087,1.877-1.025
		c0.041-0.469,0.127-2.472,0.127-4.221C119.61,109.085,119.567,108.105,119.524,107.081"/>
	<polygon fill="#FFFFFF" points="128.948,119.062 128.948,88.962 138.882,88.962 138.882,92.714 132.958,92.714 132.958,101.54 
		138.244,101.54 138.244,105.29 132.999,105.29 132.999,115.268 138.882,115.268 138.882,119.062 	"/>
	<path fill="#FFFFFF" d="M151.846,119.062c-0.511-2.814-0.599-3.453-0.599-6.312v-2.131c0-1.021-0.039-2.088-0.168-3.11
		c-0.086-0.728-0.214-1.45-0.725-1.92c-0.384-0.298-0.812-0.384-1.28-0.384h-1.618v13.857h-3.968V88.963h6.482
		c0.511,0,1.022,0,1.491,0.042c1.065,0.083,3.069,0.212,3.668,2.939c0.17,0.77,0.254,2.26,0.254,4.307c0,1.15,0,2.346-0.084,3.537
		c-0.043,0.77-0.17,1.707-0.471,2.389c-0.724,1.579-2.43,1.535-3.07,1.621c0.641,0.128,1.877-0.042,2.729,1.279
		c0.683,1.065,0.724,2.302,0.724,4.773v3.285c0,3.408,0.088,4.048,0.771,5.926H151.846z M151.378,94.034
		c-0.043-0.639-0.17-0.979-0.428-1.192c-0.256-0.257-0.682-0.257-1.449-0.257h-2.006v9.294h1.877c1.023,0,1.621-0.255,1.875-1.321
		c0.172-0.727,0.215-2.516,0.215-4.605C151.462,95.313,151.419,94.674,151.378,94.034"/>
</g>
</svg>
