<?xml version="1.0" encoding="utf-8"?>
<!-- Generator: Adobe Illustrator 16.0.4, SVG Export Plug-In . SVG Version: 6.00 Build 0)  -->
<!DOCTYPE svg PUBLIC "-//W3C//DTD SVG 1.1 Tiny//EN" "http://www.w3.org/Graphics/SVG/1.1/DTD/svg11-tiny.dtd">
<svg version="1.1" baseProfile="tiny" id="Layer_1" xmlns="http://www.w3.org/2000/svg" xmlns:xlink="http://www.w3.org/1999/xlink"
	 x="0px" y="0px" width="160px" height="130px" viewBox="0 0 160 130" xml:space="preserve">
<g>
	<path fill="none" d="M103.169,105.249c0-0.645-0.044-1.295-0.086-1.94c-0.044-0.646-0.172-0.991-0.431-1.207
		c-0.259-0.258-0.69-0.258-1.465-0.258h-2.027v9.397h1.896c1.035,0,1.639-0.259,1.897-1.335
		C103.125,109.172,103.169,107.362,103.169,105.249z"/>
	<circle fill="none" cx="105.842" cy="76.049" r="5.375"/>
	<path fill="none" d="M68.984,109.388c0.087-0.603,0.13-1.595,0.13-3.061c0-0.948-0.043-1.896-0.13-2.846
		c-0.043-0.818-0.172-1.205-0.43-1.422c-0.302-0.259-0.733-0.259-1.465-0.259h-1.983v9.14h1.552
		C67.908,110.94,68.812,110.896,68.984,109.388z"/>
	<path fill="none" d="M68.598,114.604c-0.346-0.304-0.863-0.345-1.25-0.345h-2.242v10.603h2.068c0.905,0,1.725,0.087,1.897-1.034
		c0.043-0.474,0.129-2.5,0.129-4.267c0-1.037-0.043-2.026-0.086-3.062C69.071,115.938,69.029,115.033,68.598,114.604z"/>
	<path fill="none" d="M120.328,109.388c0.084-0.603,0.128-1.595,0.128-3.061c0-0.948-0.044-1.896-0.128-2.846
		c-0.044-0.818-0.172-1.205-0.43-1.422c-0.306-0.259-0.734-0.259-1.47-0.259h-1.98v9.14H118
		C119.249,110.94,120.156,110.896,120.328,109.388z"/>
	<polygon fill="none" points="83.814,103.481 82.133,119.302 85.753,119.302 	"/>
	<path fill="none" d="M119.938,114.604c-0.346-0.304-0.86-0.345-1.248-0.345h-2.242v10.603h2.068c0.904,0,1.726,0.087,1.896-1.034
		c0.044-0.474,0.131-2.5,0.131-4.267c0-1.037-0.043-2.026-0.087-3.062C120.412,115.938,120.371,115.033,119.938,114.604z"/>
	<circle fill="none" cx="50.106" cy="76.049" r="5.375"/>
	<path fill="none" d="M152.227,102.102c-0.258-0.258-0.689-0.258-1.465-0.258h-2.027v9.397h1.896c1.034,0,1.639-0.259,1.896-1.335
		c0.174-0.734,0.216-2.544,0.216-4.657c0-0.645-0.042-1.295-0.085-1.94S152.486,102.317,152.227,102.102z"/>
	<polygon fill="none" points="27.085,103.481 25.403,119.302 29.023,119.302 	"/>
	<path fill="#FFFFFF" d="M99.426,70.805c-1.169,1.429-1.872,3.254-1.872,5.244c0,4.577,3.71,8.288,8.288,8.288
		s8.287-3.711,8.287-8.288s-3.709-8.287-8.287-8.287c-1.317,0-2.558,0.315-3.664,0.862l-1.596,3.2
		C100.337,71.616,99.942,71.267,99.426,70.805z M105.842,70.675c2.967,0,5.373,2.405,5.373,5.374c0,2.97-2.406,5.375-5.373,5.375
		c-2.968,0-5.375-2.405-5.375-5.375C100.467,73.08,102.875,70.675,105.842,70.675z"/>
	<path fill="#FFFFFF" d="M55.477,69.745c-1.447-1.234-3.32-1.983-5.371-1.983c-4.579,0-8.289,3.71-8.289,8.287
		c0,2.266,0.911,4.316,2.384,5.812c0.096-0.117,0.192-0.234,0.294-0.341l4.601,1.33c-0.116-0.034-1.009,0.167-1.99,0.918
		c0.931,0.362,1.94,0.568,2.999,0.568c4.577,0,8.286-3.711,8.286-8.288c0-1.471-0.387-2.85-1.059-4.048l0,0.001
		C57.332,72.002,51.472,72.588,55.477,69.745z M50.106,81.424c-2.969,0-5.375-2.405-5.375-5.375c0-2.969,2.405-5.374,5.375-5.374
		c2.966,0,5.372,2.405,5.372,5.374C55.478,79.019,53.072,81.424,50.106,81.424z"/>
	<path fill="#FFFFFF" d="M84.014,50.845l-1.357,3.074l-3.223-3.642l-0.641-0.729l-1.456,1.693l-2.729-3.009
		c0,0,0.608-0.633,1.574-1.654l-1.04-1.184C73.721,47.51,61.61,65.391,55.478,69.745h0c-4.005,2.843,1.855,2.257,1.855,2.257
		l0-0.001c0.014-0.013,17.494-16.3,20.832-20.773c0,0,16.268,15.096,21.262,19.577c0.516,0.462,0.911,0.812,1.156,1.02l1.596-3.2
		l0.001-0.002c0,0-10.938-8.362-20.478-22.458l-0.854,0.993L84.014,50.845z"/>
	<path fill="#FFFFFF" d="M41.847,9.67l-1.082,1.088l11.154,12.603c0,0,2.179,2.594,5.102,1.416l18.122,20.618l1.04,1.184
		c0.604-0.638,1.348-1.427,2.179-2.316L59.754,22.589c0,0,2.863-3.081,0.285-6.237C57.458,13.191,48.797,3.653,48.797,3.653
		l-0.935,1.005l8.862,10.595l-0.683,0.614L46.729,5.482l-1.054,1.091l8.973,10.84l-0.745,0.662L44.309,7.689l-1.026,0.957
		l8.83,10.836l-0.673,0.6L41.847,9.67z"/>
	<polygon fill="#FFFFFF" points="82.657,53.919 84.014,50.845 80.848,47.158 78.793,49.548 79.434,50.277 	"/>
	<path fill="#FFFFFF" d="M76.183,46.578c-0.966,1.021-1.574,1.654-1.574,1.654l2.729,3.009l1.456-1.693l2.055-2.391l0.854-0.993
		l33.966-39.512c0,0-7.605-2.668-15.868,6.543c-8.266,9.209-11.224,13.053-11.224,13.053s2.07,1.783,1.486,4.143
		c-0.394,1.587-7.253,9.115-11.7,13.871C77.531,45.151,76.787,45.94,76.183,46.578z"/>
	<path fill="#FFFFFF" d="M12.556,109.215h4.052v-3.88c0-1.465-0.043-2.844-0.646-4.223c-0.302-0.733-0.775-1.379-1.423-1.897
		c-0.775-0.646-1.983-1.336-4.224-1.336c-0.948,0-1.681,0.085-2.544,0.387c-3.877,1.25-4.094,5.089-4.18,6.253
		c-0.043,0.688-0.087,1.378-0.087,2.067v14.699c0,1.768,0,3.664,1.079,5.215c0.732,1.078,2.284,2.5,5.387,2.5
		c3.233,0,4.786-1.595,5.518-2.672c0.992-1.466,1.121-2.931,1.121-4.613v-5.69h-4.052v5.905c0,1.123,0.043,2.417-0.992,3.148
		c-0.602,0.474-1.292,0.431-1.551,0.431c-2.243,0-2.371-1.638-2.414-2.456c-0.042-0.344-0.042-0.689-0.042-1.035v-16.811
		c0-1.164-0.087-2.458,0.904-3.318c0.344-0.261,0.777-0.519,1.638-0.519c2.673,0,2.457,2.5,2.457,3.148V109.215z"/>
	<path fill="#FFFFFF" d="M29.541,123.008l0.776,5.604h3.921L29.541,98.18H24.67l-4.312,30.432h3.923l0.689-5.604H29.541z
		 M27.085,103.481l1.938,15.82h-3.62L27.085,103.481z"/>
	<polygon fill="#FFFFFF" points="38.465,128.611 49.112,128.611 49.112,124.862 42.474,124.862 42.474,98.18 38.465,98.18 	"/>
	<path fill="#FFFFFF" d="M73.038,104.258c-0.043-2.715-0.043-4.138-1.121-5.173c-0.992-0.905-2.328-0.905-3.578-0.905h-7.114v30.432
		h6.123c1.421,0,3.146,0.045,4.353-0.945c1.294-1.123,1.25-3.192,1.294-3.539c0.085-1.246,0.085-2.455,0.085-3.705
		c0-0.819-0.042-1.595-0.042-2.371c-0.043-2.112,0.042-3.274-0.43-4.137c-0.562-0.992-1.811-1.294-2.89-1.379
		c0,0,0.819-0.132,1.25-0.261c0.648-0.171,1.336-0.603,1.64-1.248c0.43-0.862,0.387-2.198,0.387-2.371
		c0.043-0.948,0.085-1.897,0.085-2.845C73.08,105.292,73.038,104.775,73.038,104.258z M65.106,101.801h1.983
		c0.732,0,1.164,0,1.465,0.259c0.258,0.217,0.387,0.604,0.43,1.422c0.087,0.95,0.13,1.897,0.13,2.846
		c0,1.466-0.043,2.458-0.13,3.061c-0.172,1.508-1.077,1.553-2.326,1.553h-1.552V101.801z M69.071,123.828
		c-0.172,1.121-0.992,1.034-1.897,1.034h-2.068V114.26h2.242c0.387,0,0.905,0.041,1.25,0.345c0.431,0.429,0.473,1.334,0.516,1.896
		c0.043,1.035,0.086,2.024,0.086,3.062C69.201,121.328,69.114,123.354,69.071,123.828z"/>
	<path fill="#FFFFFF" d="M77.089,128.611h3.924l0.688-5.604h4.57l0.775,5.604h3.923L86.272,98.18h-4.87L77.089,128.611z
		 M83.814,103.481l1.939,15.82h-3.62L83.814,103.481z"/>
	<path fill="#FFFFFF" d="M103.558,128.611h4.182c-0.69-1.896-0.776-2.543-0.776-5.99v-3.319c0-2.501-0.044-3.751-0.733-4.828
		c-0.862-1.337-2.111-1.164-2.76-1.294c0.648-0.086,2.372-0.043,3.104-1.64c0.303-0.686,0.433-1.634,0.476-2.411
		c0.086-1.207,0.086-2.412,0.086-3.578c0-2.069-0.086-3.577-0.259-4.353c-0.604-2.761-2.63-2.889-3.707-2.974
		c-0.475-0.045-0.991-0.045-1.509-0.045H95.11v30.432h4.008v-14.007h1.639c0.474,0,0.904,0.086,1.294,0.385
		c0.517,0.476,0.645,1.207,0.731,1.94c0.13,1.035,0.172,2.113,0.172,3.148v2.153C102.954,125.12,103.04,125.767,103.558,128.611z
		 M101.056,111.241h-1.896v-9.397h2.027c0.774,0,1.206,0,1.465,0.258c0.259,0.216,0.387,0.562,0.431,1.207
		c0.042,0.646,0.086,1.296,0.086,1.94c0,2.113-0.044,3.923-0.216,4.657C102.695,110.982,102.091,111.241,101.056,111.241z"/>
	<path fill="#FFFFFF" d="M124.38,104.258c-0.045-2.715-0.045-4.138-1.123-5.173c-0.991-0.905-2.327-0.905-3.575-0.905h-7.112v30.432
		h6.12c1.421,0,3.146,0.045,4.353-0.945c1.293-1.123,1.25-3.192,1.293-3.539c0.087-1.246,0.087-2.455,0.087-3.705
		c0-0.819-0.042-1.595-0.042-2.371c-0.045-2.112,0.042-3.274-0.432-4.137c-0.562-0.992-1.811-1.294-2.889-1.379
		c0,0,0.819-0.132,1.249-0.261c0.648-0.171,1.338-0.603,1.64-1.248c0.432-0.862,0.387-2.198,0.387-2.371
		c0.045-0.948,0.087-1.897,0.087-2.845C124.422,105.292,124.38,104.775,124.38,104.258z M116.448,101.801h1.98
		c0.735,0,1.164,0,1.47,0.259c0.258,0.217,0.386,0.604,0.43,1.422c0.084,0.95,0.128,1.897,0.128,2.846
		c0,1.466-0.044,2.458-0.128,3.061c-0.172,1.508-1.079,1.553-2.327,1.553h-1.553V101.801z M120.412,123.828
		c-0.17,1.121-0.991,1.034-1.896,1.034h-2.068V114.26h2.242c0.388,0,0.902,0.041,1.248,0.345c0.433,0.429,0.474,1.334,0.518,1.896
		c0.044,1.035,0.087,2.024,0.087,3.062C120.542,121.328,120.456,123.354,120.412,123.828z"/>
	<polygon fill="#FFFFFF" points="140.027,101.974 140.027,98.18 129.983,98.18 129.983,128.611 140.027,128.611 140.027,124.774 
		134.078,124.774 134.078,114.688 139.381,114.688 139.381,110.896 134.039,110.896 134.039,101.974 	"/>
	<path fill="#FFFFFF" d="M156.536,119.302c0-2.501-0.041-3.751-0.731-4.828c-0.86-1.337-2.112-1.164-2.758-1.294
		c0.646-0.086,2.371-0.043,3.103-1.64c0.303-0.686,0.432-1.634,0.474-2.411c0.088-1.207,0.088-2.412,0.088-3.578
		c0-2.069-0.088-3.577-0.259-4.353c-0.604-2.761-2.631-2.889-3.708-2.974c-0.474-0.045-0.99-0.045-1.506-0.045h-6.554v30.432h4.01
		v-14.007h1.636c0.474,0,0.908,0.086,1.295,0.385c0.518,0.476,0.646,1.207,0.733,1.94c0.128,1.035,0.17,2.113,0.17,3.148v2.153
		c0,2.889,0.088,3.535,0.605,6.38h4.181c-0.691-1.896-0.778-2.543-0.778-5.99V119.302z M152.528,109.906
		c-0.258,1.076-0.862,1.335-1.896,1.335h-1.896v-9.397h2.027c0.775,0,1.207,0,1.465,0.258c0.259,0.216,0.389,0.562,0.432,1.207
		s0.085,1.296,0.085,1.94C152.744,107.362,152.702,109.172,152.528,109.906z"/>
	<path fill="#FFFFFF" d="M44.496,81.521c-0.102,0.106-0.198,0.224-0.294,0.341c-1.923,2.353-2.65,6.791-2.65,6.791
		c-0.179,1.153-0.092,4.57,1.307,4.338c1.402-0.234,1.488-2.08,1.488-2.08c-0.111-4.017,1.408-6.105,2.76-7.142
		c0.981-0.751,1.875-0.952,1.99-0.918L44.496,81.521z"/>
</g>
</svg>
