<?xml version="1.0" encoding="utf-8"?>
<!-- Generator: Adobe Illustrator 16.0.4, SVG Export Plug-In . SVG Version: 6.00 Build 0)  -->
<!DOCTYPE svg PUBLIC "-//W3C//DTD SVG 1.1 Tiny//EN" "http://www.w3.org/Graphics/SVG/1.1/DTD/svg11-tiny.dtd">
<svg version="1.1" baseProfile="tiny" id="Layer_1" xmlns="http://www.w3.org/2000/svg" xmlns:xlink="http://www.w3.org/1999/xlink"
	 x="0px" y="0px" width="200px" height="60px" viewBox="0 0 200 60" xml:space="preserve">
<g>
	<path fill-rule="evenodd" fill="#9C9B9B" d="M0.639,53.837c-0.055-0.023-0.108-0.048-0.161-0.071
		c0.327-1.459,0.582-2.938,0.995-4.37c1.157-4.012,3.122-7.572,6.128-10.516c1.422-1.392,3.04-2.516,4.777-3.476
		c2.069-1.142,4.096-2.366,5.704-4.125c0.642-0.701,1.163-1.548,1.583-2.407c0.443-0.902,0.331-1.855-0.3-2.732
		c0.274-0.362,0.552-0.73,0.906-1.198c-0.666,0.15-1.221,0.292-1.782,0.399c-1.351,0.259-2.706,0.435-4.065,0.065
		c-0.282-0.077-0.583-0.157-0.814-0.32c-0.378-0.267-0.603-0.107-0.899,0.14c-0.474,0.395-0.972,0.779-1.51,1.079
		c-0.339,0.188-0.5,0.393-0.588,0.762c-0.169,0.72-0.363,1.442-0.627,2.132c-0.354,0.926-0.777,1.156-1.736,0.97
		c-0.901-0.174-1.736-0.075-2.576,0.307c-1.172,0.534-1.65,0.347-2.32-0.745c-0.094-0.155-0.241-0.291-0.39-0.395
		c-0.579-0.412-1.147-0.845-1.759-1.201c-0.84-0.492-1.189-1.219-1.196-2.152c-0.007-0.866-0.016-1.735,0-2.602
		c0.008-0.429,0.124-0.845,0.542-1.059c1.574-0.807,2.634-2.182,3.794-3.44c0.906-0.98,1.746-2.022,2.65-3.005
		c0.424-0.462,0.707-0.949,0.794-1.58c0.156-1.139,0.729-2.035,1.685-2.687c1.022-0.698,1.968-1.466,2.588-2.582
		c0.279-0.502,0.752-0.794,1.367-0.82c0.39-0.015,0.395-0.049,0.415-0.704c-0.239,0-0.479,0.007-0.718-0.001
		c-0.865-0.027-1.537-0.472-1.7-1.324c-0.381-2.013-0.279-3.997,0.65-5.876c0.03-0.059,0.078-0.111,0.153-0.217
		c0.205,0.431,0.367,0.837,0.581,1.213c1.001,1.748,2.458,2.84,4.513,2.948c0.841,0.044,1.702-0.003,2.535-0.131
		c1.447-0.222,2.75,0.038,3.942,0.885c1.173,0.834,2.345,1.667,3.53,2.481c0.412,0.283,0.851,0.538,1.301,0.757
		c1.325,0.642,2.299,0.222,2.844-1.183c0.148,0.539,0.328,1.072,0.435,1.62c0.069,0.354-0.129,0.611-0.472,0.777
		c-0.395,0.189-0.767,0.427-1.212,0.681c1.095,0.216,2.088,0.356,3.049,0.616c1.543,0.417,2.946,1.115,4.031,2.337
		c0.88,0.991,1.34,2.153,1.458,3.562c-0.938-0.704-1.802-1.367-3.113-1.297c0.235,0.182,0.381,0.282,0.511,0.399
		c0.814,0.726,1.686,1.398,2.424,2.195c1.636,1.764,2.258,3.812,1.683,6.227c-0.318,1.335-0.26,2.724,0.068,4.076
		c0.349,1.432,1.081,2.629,2.317,3.457c1.014,0.678,1.281,1.596,0.969,2.711c-0.416,1.483-1.258,2.685-2.507,3.593
		c-0.177,0.129-0.388,0.215-0.715,0.392c0.25-0.404,0.448-0.671,0.59-0.962c0.684-1.411,0.436-2.721-0.459-3.95
		c-0.058-0.08-0.148-0.141-0.229-0.202c-0.468-0.367-0.938-0.73-1.425-1.113c-0.112,0.677,0.028,1.381,0.275,2.058
		c0.299,0.821,0.608,1.649,0.399,2.526c-0.171,0.716-0.45,1.41-0.711,2.104c-0.492,1.305-1.073,2.582-1.487,3.913
		c-0.256,0.816-0.25,1.736,0.545,2.333c0.823,0.617,1.78,0.738,2.76,0.411c0.629-0.211,0.924-0.744,0.971-1.359
		c0.057-0.739,0.014-1.486,0.014-2.336c1.007,0.587,1.885,1.196,2.17,2.312c0.229,0.902-0.227,1.619-0.893,2.189
		c-0.853,0.731-1.893,0.975-2.981,1.049c-0.378,0.025-0.759,0.005-1.145,0.005c-0.16,0.431,0,0.729,0.341,0.888
		c1.241,0.577,2.537,0.842,3.876,0.412c0.881-0.283,1.339-0.991,1.586-1.896c0.24,1.298-0.676,2.961-2.001,3.489
		c-0.692,0.276-1.473,0.501-2.206,0.48c-1.707-0.053-3.407-0.265-5.111-0.406c-0.109-0.009-0.237,0.001-0.331,0.049
		c-0.569,0.292-1.13,0.599-1.737,0.92c0.967,1.17,2.082,2.218,2.397,3.756C34.052,52.458,9.248,44.67,0.639,53.837z"/>
	<g>
		<path fill="#FFFFFF" d="M15.971,44.672c0,0.915,0.159,1.074,0.975,1.114c0.07,0.179,0.1,0.518,0.1,0.776
			c-0.368-0.021-1.094-0.03-1.94-0.03s-1.86,0.01-2.298,0.03c0-0.239,0.06-0.588,0.12-0.776c0.826-0.04,1.054-0.199,1.054-1.114
			v-4.119h-0.02c-0.727,0-1.045,0.408-1.264,1.273c-0.368,0-0.746-0.02-1.025-0.148c0.14-0.538,0.249-1.344,0.249-1.9
			c0.835,0.029,1.502,0.029,3.114,0.029c1.423,0,2.229-0.01,3.054-0.029c0,0.557,0.09,1.293,0.239,1.89
			c-0.269,0.109-0.626,0.159-1.035,0.159c-0.179-0.896-0.448-1.273-1.124-1.273h-0.199V44.672z"/>
		<path fill="#FFFFFF" d="M25.222,44.672c0,0.915,0.119,1.074,0.657,1.114c0.049,0.179,0.079,0.518,0.079,0.776
			c-0.298-0.021-0.895-0.03-1.582-0.03s-1.413,0.01-1.88,0.03c0-0.239,0.05-0.588,0.1-0.776c0.537-0.04,0.637-0.199,0.637-1.114
			v-1.264c-0.637,0-1.323,0.01-1.93,0.04v1.224c0,0.915,0.12,1.074,0.657,1.114c0.05,0.179,0.08,0.518,0.08,0.776
			c-0.298-0.021-0.896-0.03-1.582-0.03s-1.413,0.01-1.88,0.03c0-0.239,0.05-0.588,0.1-0.776c0.537-0.04,0.637-0.199,0.637-1.114
			v-3.024c0-0.896-0.089-1.015-0.646-1.095c-0.05-0.198-0.09-0.517-0.09-0.775c0.329,0.02,1.303,0.029,1.781,0.029
			s1.284-0.01,1.682-0.029c0,0.269,0,0.517-0.09,0.775c-0.547,0.06-0.646,0.199-0.646,1.095v1.034h1.93v-1.034
			c0-0.896-0.09-1.015-0.647-1.095c-0.049-0.198-0.089-0.517-0.089-0.775c0.328,0.02,1.303,0.029,1.781,0.029
			s1.284-0.01,1.681-0.029c0,0.269,0,0.517-0.089,0.775c-0.547,0.06-0.646,0.199-0.646,1.095V44.672z"/>
		<path fill="#FFFFFF" d="M30.891,40.086c0,0.587,0.02,1.233,0.069,1.571c-0.278,0.159-0.786,0.209-1.114,0.209
			c-0.159-1.055-0.497-1.353-1.015-1.353c-0.418,0-0.736,0.188-0.736,0.597c0,1.293,3.283,1.015,3.283,3.372
			c0,1.304-0.995,2.14-2.766,2.14c-0.846,0-1.453-0.189-2.079-0.548c0.109-0.547,0.129-1.153,0.129-1.691
			c0.378-0.099,0.806-0.119,1.194-0.119c0.08,1.194,0.269,1.542,0.945,1.542c0.657,0,0.925-0.328,0.925-0.666
			c0-1.154-3.054-0.945-3.054-3.402c0-1.443,1.044-2.02,2.388-2.02C29.766,39.718,30.542,39.877,30.891,40.086z"/>
	</g>
	<g>
		<path fill="#9C9B9B" d="M127.438,14.49c0.703-0.773,1.288-1.408,1.201-2.25c-0.084-0.843-0.599-1.753-1.871-1.753
			c-1.209,0-3.174,1.37-3.426,3.985h-0.591c0.029-0.456,0.082-1.027,0.186-1.494c0.266-1.352,1.283-2.279,1.283-3.539
			c0-1.261-0.448-1.718-0.974-2.325c-0.527-0.607-0.703-1.111-0.703-1.111s-0.179,0.503-0.704,1.111
			c-0.527,0.606-0.976,1.064-0.976,2.325c0,1.259,1.02,2.187,1.283,3.539c0.103,0.466,0.157,1.038,0.186,1.494h-0.558
			c-0.249-2.615-2.215-3.985-3.424-3.985c-1.271,0-1.787,0.91-1.874,1.753c-0.084,0.842,0.5,1.476,1.204,2.25
			c0.704,0.773,0.515,1.324-0.396,1.409c1.014,0.601,1.839-0.155,1.839-1.031c0-0.876-0.757-1.374-0.825-1.855
			c-0.07-0.481,0.259-1.1,0.943-1.014c1.359,0.161,1.876,1.583,2.018,2.473h-0.332c-0.286,0-0.518,0.189-0.518,0.422
			c0,0.232,0.231,0.42,0.518,0.42h0.378c-0.04,1.04-0.39,1.688-0.859,1.718c-0.533,0.034-0.619-0.481-0.275-0.533
			c-0.327-0.635-1.134-0.361-1.255,0.173c-0.121,0.546,0.36,1.133,0.997,1.15c0.602,0.016,1.723-0.139,1.874-2.508h0.581
			c0.012,0.155,0.042,0.822-0.268,1.752c-0.355,1.064-0.225,1.419,0.442,2.336c0.663-0.917,0.794-1.272,0.441-2.336
			c-0.312-0.93-0.281-1.597-0.269-1.752h0.616c0.147,2.37,1.271,2.524,1.872,2.508c0.635-0.017,1.119-0.604,0.996-1.15
			c-0.119-0.534-0.928-0.809-1.252-0.173c0.342,0.052,0.256,0.567-0.275,0.533c-0.474-0.031-0.821-0.678-0.86-1.718h0.447
			c0.284,0,0.516-0.188,0.516-0.42c0-0.233-0.231-0.422-0.516-0.422h-0.402c0.143-0.89,0.657-2.312,2.019-2.473
			c0.686-0.086,1.01,0.533,0.944,1.014c-0.071,0.481-0.825,0.979-0.825,1.855c0,0.876,0.825,1.632,1.839,1.031
			C126.921,15.813,126.733,15.263,127.438,14.49z"/>
	</g>
	<g>
		<path fill="#3C3C3B" d="M63.81,32.519c-0.202,1.183-0.328,2.567-0.328,3.978c-0.377,0.201-0.755,0.227-1.208,0.201
			c-0.025-2.316-0.503-3.122-2.593-3.122h-1.259l-2.266,12.967c-0.252,1.435-0.101,1.838,1.687,2.064
			c0.076,0.327,0.101,0.68,0.05,1.082c-1.057-0.075-2.215-0.075-3.223-0.075c-1.107,0-2.392,0-3.298,0.075
			c0-0.453,0.075-0.83,0.176-1.107c1.636-0.201,1.989-0.604,2.291-2.291l2.215-12.715h-1.485c-1.838,0-2.593,0.932-3.323,3.198
			c-0.503,0-0.906-0.051-1.184-0.353c0.353-1.058,0.73-2.72,0.907-3.902c1.385,0.075,3.827,0.075,6.319,0.075
			C59.882,32.594,62.425,32.594,63.81,32.519z"/>
		<path fill="#3C3C3B" d="M74.411,48.153c-1.108,1.133-1.989,1.687-2.896,1.687c-1.989,0-1.737-1.561-1.184-4.054l0.68-2.996
			c0.579-2.567,0.176-3.097-0.378-3.097c-1.233,0-3.726,2.669-4.456,6.646l-0.579,3.273h-2.292l2.367-13.444
			c0.428-2.342,0.328-2.442-1.284-2.442c-0.025-0.327,0.025-0.73,0.151-0.957c1.032-0.15,2.493-0.579,3.399-1.032
			c0.529,0.177,0.68,0.68,0.529,1.611c-1.058,6.068-1.309,6.949-2.166,9.668h0.051l0.579-1.233c0.78-1.637,2.92-3.928,4.683-3.928
			c1.083,0,2.694,0.856,1.763,4.834l-0.73,3.071c-0.529,2.267-0.529,2.367-0.101,2.367c0.353,0,1.007-0.378,1.41-0.78
			C74.209,47.6,74.335,47.826,74.411,48.153z"/>
		<path fill="#3C3C3B" d="M84.056,40.65c-0.503,2.216-3.751,3.701-5.917,3.852c-0.176,1.788,0.125,3.525,1.762,3.525
			c0.806,0,1.712-0.403,2.543-1.41c0.252,0.176,0.428,0.403,0.529,0.73c-1.058,1.409-2.543,2.492-4.406,2.492
			c-2.895,0-3.122-3.172-2.593-5.791c0.856-4.229,3.374-6.193,5.665-6.193C83.603,37.855,84.358,39.291,84.056,40.65z M80.984,39.14
			c-1.083,0-2.215,1.436-2.719,4.431c1.838-0.176,3.424-1.032,3.751-2.593C82.218,39.945,81.815,39.14,80.984,39.14z"/>
		<path fill="#3C3C3B" d="M108.328,32.519c-0.025,0.402-0.075,0.755-0.227,1.082c-1.284,0.227-1.661,0.554-1.964,2.19L104.3,46.416
			c-0.302,1.687,0,2.014,1.485,2.19c0.076,0.302,0.102,0.705,0.051,1.082c-1.007-0.05-2.064-0.075-3.047-0.075
			c-0.981,0-2.19,0.025-3.046,0.075c0-0.428,0.075-0.806,0.201-1.082c1.359-0.151,1.687-0.504,1.989-2.19l0.855-4.985
			c-2.064,0-5.689,0-7.704,0.126l-0.831,4.859c-0.302,1.687,0,2.014,1.485,2.19c0.076,0.302,0.101,0.705,0.05,1.082
			c-1.007-0.05-2.064-0.075-3.046-0.075s-2.19,0.025-3.046,0.075c0-0.428,0.076-0.806,0.202-1.082
			c1.359-0.151,1.687-0.504,1.989-2.19l1.838-10.625c0.302-1.687-0.126-2.014-1.51-2.19c-0.051-0.327-0.076-0.68-0.025-1.082
			c0.932,0.05,1.938,0.075,3.021,0.075c1.083,0,2.065-0.025,3.072-0.075c-0.025,0.402-0.076,0.755-0.227,1.082
			c-1.284,0.227-1.662,0.554-1.964,2.19l-0.78,4.557h7.679l0.78-4.557c0.302-1.687-0.126-2.014-1.511-2.19
			c-0.051-0.327-0.075-0.68-0.025-1.082c0.932,0.05,1.938,0.075,3.021,0.075S107.321,32.568,108.328,32.519z"/>
		<path fill="#3C3C3B" d="M118.227,43.621c-0.63,3.575-3.147,6.219-6.193,6.219c-3.021,0-4.432-2.593-3.752-6.018
			c0.68-3.55,3.173-5.967,6.169-5.967C117.421,37.855,118.831,40.272,118.227,43.621z M110.774,43.57
			c-0.579,2.921,0.075,5.062,1.586,5.062c1.485,0,2.87-2.04,3.373-4.759c0.529-2.795-0.125-4.809-1.661-4.809
			C112.612,39.064,111.303,40.902,110.774,43.57z"/>
		<path fill="#3C3C3B" d="M124.17,39.467c-0.151,0.831-0.529,1.964-1.108,3.323h0.051l0.428-0.932
			c1.133-2.366,2.115-4.003,3.601-4.003c0.453,0,0.906,0.151,1.284,0.453c-0.303,0.932-0.504,1.989-0.604,2.921
			c-0.302,0.151-0.73,0.227-1.233,0.201c0.075-1.158-0.051-1.46-0.277-1.46c-0.353,0-0.981,0.579-1.812,2.165
			c-0.529,1.058-1.436,3.097-1.838,5.236l-0.428,2.241h-2.316l1.409-7.326c0.453-2.342,0.378-2.442-1.233-2.442
			c0-0.353,0.025-0.705,0.177-0.957c0.806-0.075,2.668-0.654,3.398-1.032C124.195,38.032,124.346,38.535,124.17,39.467z"/>
		<path fill="#3C3C3B" d="M136.709,38.661c-0.276,0.806-0.453,1.788-0.479,2.72c-0.327,0.176-0.755,0.227-1.233,0.227
			c0-1.989-0.579-2.568-1.712-2.568c-0.982,0-1.485,0.428-1.611,1.007c-0.504,2.165,4.582,3.248,3.802,7.075
			c-0.378,1.838-1.788,2.719-3.827,2.719c-1.561,0-2.795-0.504-3.499-0.981c0.302-1.083,0.402-1.964,0.428-2.745
			c0.378-0.176,0.806-0.251,1.208-0.227c-0.075,1.662,0.403,2.795,2.015,2.795c1.007,0,1.561-0.428,1.687-1.032
			c0.453-2.064-4.381-3.475-3.65-7.15c0.327-1.687,1.611-2.644,3.625-2.644C134.695,37.855,135.979,38.208,136.709,38.661z"/>
		<path fill="#3C3C3B" d="M145.951,40.65c-0.503,2.216-3.751,3.701-5.916,3.852c-0.177,1.788,0.126,3.525,1.763,3.525
			c0.806,0,1.712-0.403,2.542-1.41c0.252,0.176,0.429,0.403,0.529,0.73c-1.058,1.409-2.543,2.492-4.406,2.492
			c-2.896,0-3.122-3.172-2.593-5.791c0.855-4.229,3.373-6.193,5.664-6.193C145.498,37.855,146.254,39.291,145.951,40.65z
			 M142.88,39.14c-1.082,0-2.216,1.436-2.719,4.431c1.838-0.176,3.424-1.032,3.751-2.593C144.113,39.945,143.711,39.14,142.88,39.14
			z"/>
		<path fill="#3C3C3B" d="M162.293,33.551c-0.177,1.133-0.277,2.114-0.277,3.247c-0.378,0.151-0.906,0.202-1.385,0.126
			c-0.05-2.618-0.981-3.398-2.442-3.398c-1.636,0-2.693,0.705-2.971,2.467c-0.629,4.028,7.276,4.457,6.345,9.769
			c-0.428,2.442-2.719,4.079-5.438,4.079c-2.567,0-3.978-0.73-5.211-1.812c0.377-1.184,0.654-2.367,0.729-3.5
			c0.403-0.15,0.957-0.176,1.359-0.05c-0.176,2.945,0.63,4.154,3.173,4.154c1.485,0,2.669-0.982,2.945-2.442
			c0.831-4.331-7.15-4.18-6.118-10.046c0.403-2.316,2.342-3.776,5.363-3.776C160.103,32.367,161.462,32.87,162.293,33.551z"/>
		<path fill="#3C3C3B" d="M174.153,48.153c-1.107,1.133-1.988,1.687-2.896,1.687c-1.988,0-1.736-1.561-1.183-4.054l0.68-2.996
			c0.579-2.567,0.176-3.097-0.378-3.097c-1.233,0-3.727,2.669-4.456,6.646l-0.579,3.273h-2.291l2.366-13.444
			c0.428-2.342,0.327-2.442-1.284-2.442c-0.024-0.327,0.025-0.73,0.151-0.957c1.032-0.15,2.492-0.579,3.399-1.032
			c0.528,0.177,0.68,0.68,0.528,1.611c-1.058,6.068-1.31,6.949-2.165,9.668h0.05l0.579-1.233c0.78-1.637,2.921-3.928,4.684-3.928
			c1.082,0,2.693,0.856,1.762,4.834l-0.729,3.071c-0.529,2.267-0.529,2.367-0.102,2.367c0.353,0,1.008-0.378,1.41-0.78
			C173.952,47.6,174.078,47.826,174.153,48.153z"/>
		<path fill="#3C3C3B" d="M185.712,43.621c-0.63,3.575-3.147,6.219-6.193,6.219c-3.021,0-4.432-2.593-3.752-6.018
			c0.68-3.55,3.173-5.967,6.169-5.967C184.906,37.855,186.316,40.272,185.712,43.621z M178.26,43.57
			c-0.579,2.921,0.075,5.062,1.586,5.062c1.485,0,2.87-2.04,3.373-4.759c0.529-2.795-0.125-4.809-1.661-4.809
			C180.098,39.064,178.788,40.902,178.26,43.57z"/>
		<path fill="#3C3C3B" d="M197.571,43.143c-0.78,3.878-3.499,6.672-6.772,6.672c-0.353,0-0.806-0.075-1.158-0.15
			c0.051,0.654,0,1.435-0.252,2.819l-0.579,3.298h-2.291l2.367-13.444c0.428-2.341,0.327-2.442-1.284-2.442
			c0-0.352,0-0.704,0.151-0.956c0.806-0.076,2.668-0.655,3.398-1.032c0.528,0.176,0.68,0.68,0.528,1.611
			c-0.15,1.007-0.402,1.938-0.805,2.896l-0.228,0.579h0.051c0.932-2.543,2.996-5.162,5.111-5.162
			C197.496,37.83,198.302,39.417,197.571,43.143z M194.399,39.87c-0.881,0-3.122,2.492-4.079,6.646l-0.428,1.763
			c0.453,0.176,0.982,0.251,1.536,0.251c2.064,0,3.197-1.737,3.701-4.229C195.733,41.456,195.406,39.87,194.399,39.87z"/>
	</g>
	<g>
		<g>
			<path fill-rule="evenodd" fill="#9C9B9B" d="M111.398,17.394c-5.104-0.307-7.767,2.963-11.398,5.729
				c-1.807,1.377-3.496,2.659-5.525,3.562c-1.199,0.537-7.634,3.099-12.496,0.52c5.285,2.174,11.269-0.637,12.223-1.107
				C99.745,23.358,104.707,16.735,111.398,17.394z"/>
			<path fill-rule="evenodd" fill="#9C9B9B" d="M110.845,17.049c-5.456-1.224-10.387,2.917-16.348,6.662
				c-1.092,0.687-2.312,1.351-3.508,1.84c-3.419,1.293-7.299,1.347-9.99-1.523c-1.374-1.562-1.982-4.037-0.929-5.957
				c0.977-1.782,3.877-1.621,4.49-1.111c0.611,0.512,0.458,1.252-1.125,1.049c-0.74-0.118-3.416-0.395-3.584,2.069
				c-0.026,2.577,1.931,4.651,4.252,5.443c3.584,1.221,6.662-0.843,9.671-2.629c3.823-2.268,6.967-4.364,11.02-5.607
				C107.003,16.606,108.759,16.474,110.845,17.049z"/>
			<path fill-rule="evenodd" fill="#9C9B9B" d="M124.832,23.049c-5.076,0.624-8.638-2.447-12.434-5.357
				c-1.891-1.45-3.955-2.618-6.036-3.521c-1.23-0.537-7.814-3.069-12.511,0.096c5.143-2.731,10.881,0.193,11.864,0.67
				c4.255,2.07,5.854,3.706,8.445,5.372C118.475,23.084,121.264,23.644,124.832,23.049z"/>
			<path fill-rule="evenodd" fill="#9C9B9B" d="M118.568,22.96c-5.372,1.674-10.551-2.711-16.73-6.595
				c-1.135-0.713-2.391-1.394-3.619-1.877c-3.492-1.267-7.372-1.117-9.882,2.258c-1.276,1.83-1.729,4.646-0.56,6.745
				c1.083,1.952,4.082,1.841,3.919,1.125c-0.025-0.111-0.106-0.368-0.838-0.195c-0.731,0.172-2.519-0.427-3.09-1.785
				c-0.187-0.444-0.301-0.9-0.331-1.387c-0.187-2.896,1.641-5.336,3.91-6.353c3.503-1.568,6.704,0.584,9.817,2.428
				c3.956,2.341,7.226,4.525,11.347,5.701C114.759,23.665,116.521,23.721,118.568,22.96z"/>
			<path fill-rule="evenodd" fill="#9C9B9B" d="M89.933,24.67c2.975-0.421,4.799-2.273,4.8-4.257c0-0.867-0.3-1.801-0.864-2.582
				c-0.586-0.812-2.212-1.499-3.451,0.299c1.37-1.648,2.821-0.978,3.399-0.117c0.874,1.31,0.722,2.855,0.08,3.99
				C93.067,23.465,91.275,24.479,89.933,24.67z"/>
		</g>
		<path fill-rule="evenodd" fill="#9C9B9B" d="M133.72,17.403c5.104-0.306,7.767,2.965,11.396,5.73
			c1.809,1.375,3.499,2.659,5.525,3.562c1.199,0.534,7.637,3.099,12.497,0.522c-5.284,2.174-11.269-0.638-12.223-1.108
			C145.372,23.369,140.411,16.744,133.72,17.403z"/>
		<path fill-rule="evenodd" fill="#9C9B9B" d="M134.273,17.061c5.454-1.226,10.385,2.917,16.347,6.66
			c1.093,0.688,2.312,1.352,3.508,1.841c3.42,1.292,7.299,1.347,9.992-1.523c1.374-1.559,1.98-4.037,0.929-5.957
			c-0.979-1.782-3.977-1.831-3.853-1.188c0.019,0.102,0.084,0.332,0.824,0.215c0.741-0.116,2.492,0.498,2.99,1.732
			c0.163,0.402,0.25,0.813,0.255,1.246c0.025,2.579-1.93,4.653-4.251,5.445c-3.585,1.221-6.663-0.843-9.672-2.628
			c-3.821-2.268-6.966-4.364-11.018-5.607C138.115,16.618,136.357,16.485,134.273,17.061z"/>
		<path fill-rule="evenodd" fill="#9C9B9B" d="M120.286,23.061c5.074,0.623,8.638-2.446,12.433-5.357
			c1.89-1.45,3.956-2.617,6.037-3.523c1.23-0.536,7.812-3.066,12.511,0.096c-5.143-2.73-10.883,0.194-11.863,0.672
			c-4.257,2.07-5.856,3.705-8.446,5.372C126.644,23.095,123.854,23.654,120.286,23.061z"/>
		<path fill-rule="evenodd" fill="#9C9B9B" d="M126.55,22.969c5.372,1.675,10.549-2.71,16.729-6.592
			c1.137-0.712,2.392-1.393,3.619-1.879c3.493-1.266,7.37-1.115,9.882,2.259c1.274,1.83,1.729,4.646,0.561,6.748
			c-1.084,1.949-4.082,1.839-3.92,1.123c0.026-0.114,0.105-0.369,0.84-0.196c0.73,0.172,2.519-0.426,3.09-1.785
			c0.186-0.443,0.298-0.899,0.329-1.387c0.186-2.896-1.639-5.336-3.909-6.353c-3.501-1.568-6.703,0.584-9.817,2.426
			c-3.958,2.342-7.226,4.527-11.349,5.701C130.356,23.677,128.595,23.732,126.55,22.969z"/>
		<path fill-rule="evenodd" fill="#9C9B9B" d="M155.186,24.681c-2.975-0.422-4.801-2.275-4.801-4.258c0-0.865,0.301-1.8,0.863-2.581
			c0.588-0.812,2.212-1.498,3.451,0.3c-1.368-1.647-2.821-0.98-3.398-0.117c-0.874,1.31-0.72,2.855-0.079,3.988
			C152.052,23.479,153.842,24.489,155.186,24.681z"/>
	</g>
</g>
</svg>
