<?xml version="1.0" encoding="utf-8"?>
<!-- Generator: Adobe Illustrator 16.0.4, SVG Export Plug-In . SVG Version: 6.00 Build 0)  -->
<!DOCTYPE svg PUBLIC "-//W3C//DTD SVG 1.1//EN" "http://www.w3.org/Graphics/SVG/1.1/DTD/svg11.dtd">
<svg version="1.1" id="Layer_1" xmlns="http://www.w3.org/2000/svg" xmlns:xlink="http://www.w3.org/1999/xlink" x="0px" y="0px"
	 width="243.5px" height="68px" viewBox="0 0 243.5 68" enable-background="new 0 0 243.5 68" xml:space="preserve">
<g>
	<g>
		<g>
			<polygon fill="#AA2E43" points="228.335,36 218.717,36 222.912,47.754 232.43,46.893 			"/>
		</g>
		<g>
			<polygon fill="#AA2E43" points="232.43,18.313 212.359,21.233 212.332,35.48 208.811,35.523 212.984,45.775 204.646,44.573 
				204.395,20.476 222.811,16.928 			"/>
		</g>
		<g>
			<polygon fill="#AA2E43" points="192.117,34.378 195.536,34.537 196.072,42.643 188.312,41.275 			"/>
		</g>
	</g>
	<polygon fill="#EA3D53" points="182.021,47.213 222.4,60.65 232.77,58.398 232.77,46.122 223.219,46.939 218.717,35.07 
		208.623,35.07 212.812,45.355 204.77,44.366 204.395,20.476 222.811,16.928 232.77,18.293 232.77,7.653 222.945,4.651 
		182.021,17.884 182.021,24.841 195.391,22.794 195.799,42.439 188.434,41.21 192.389,34.391 186.115,34.117 182.021,39.574 	"/>
</g>
<g>
	<path fill="#EA3D53" d="M30.984,38.207c-1.213,1.441-2.967,2.686-5.263,3.729c-2.298,1.045-5.263,1.565-8.899,1.565
		c-4.614,0-8.313-1.14-11.099-3.418c-2.786-2.278-4.178-5.515-4.178-9.707V19.389c0-4.176,1.353-7.408,4.061-9.695
		c2.707-2.287,6.29-3.43,10.746-3.43c4.652,0,8.161,0.932,10.527,2.796c2.365,1.865,3.508,4.521,3.431,7.967l-0.059,0.149H22.48
		c0-1.889-0.489-3.264-1.466-4.126c-0.977-0.862-2.454-1.292-4.427-1.292c-2.132,0-3.793,0.629-4.985,1.889
		c-1.193,1.26-1.789,3.157-1.789,5.692v11.037c0,2.585,0.605,4.508,1.818,5.767c1.211,1.26,2.941,1.891,5.19,1.891
		c1.602,0,2.863-0.163,3.782-0.485c0.918-0.323,1.623-0.75,2.111-1.28v-7.309h-6.509v-4.847h14.778L30.984,38.207L30.984,38.207z"/>
	<path fill="#EA3D53" d="M51.187,22.148l-2.815-0.075c-0.918,0-1.686,0.208-2.301,0.621c-0.615,0.416-1.09,0.995-1.422,1.741v18.543
		h-8.24V16.083h7.712l0.322,3.803c0.605-1.358,1.383-2.415,2.331-3.168c0.948-0.754,2.038-1.131,3.27-1.131
		c0.371,0,0.713,0.029,1.026,0.087c0.312,0.058,0.635,0.128,0.968,0.211L51.187,22.148z"/>
	<path fill="#EA3D53" d="M63.736,9.546h-8.269V4.201h8.269V9.546z M63.736,42.979h-8.269V16.083h8.269V42.979z"/>
	<path fill="#EA3D53" d="M77.371,16.083l0.322,3.456c0.86-1.259,1.939-2.233,3.24-2.921c1.3-0.687,2.79-1.031,4.472-1.031
		c1.661,0,3.097,0.369,4.31,1.106c1.211,0.738,2.141,1.861,2.786,3.368c0.84-1.408,1.92-2.505,3.24-3.293
		c1.319-0.787,2.859-1.181,4.619-1.181c2.658,0,4.759,0.944,6.304,2.834c1.543,1.889,2.316,4.781,2.316,8.675V42.98h-8.269V27.095
		c0-2.27-0.284-3.836-0.851-4.698c-0.567-0.861-1.437-1.292-2.609-1.292c-0.861,0-1.623,0.212-2.287,0.634
		c-0.665,0.423-1.212,1.006-1.642,1.752c0.02,0.415,0.044,0.771,0.074,1.069c0.029,0.298,0.044,0.597,0.044,0.895V42.98H85.2V27.095
		c0-2.237-0.284-3.794-0.85-4.673c-0.567-0.878-1.447-1.317-2.639-1.317c-0.802,0-1.52,0.17-2.155,0.51
		c-0.636,0.339-1.178,0.816-1.627,1.429V42.98H69.66V16.083H77.371z"/>
	<path fill="#EA3D53" d="M130.355,42.979c-0.313-0.597-0.572-1.244-0.777-1.938c-0.205-0.696-0.357-1.409-0.455-2.138
		c-0.704,1.342-1.627,2.445-2.771,3.306c-1.144,0.862-2.545,1.293-4.208,1.293c-2.894,0-5.117-0.715-6.671-2.149
		c-1.554-1.434-2.331-3.401-2.331-5.904c0-2.618,1.021-4.652,3.064-6.104c2.042-1.45,5.096-2.175,9.163-2.175h3.607v-2.237
		c0-1.342-0.295-2.374-0.881-3.095c-0.586-0.721-1.457-1.082-2.609-1.082c-1.018,0-1.789,0.291-2.316,0.871
		c-0.527,0.581-0.792,1.409-0.792,2.486l-7.975-0.025l-0.059-0.149c-0.118-2.32,0.909-4.292,3.078-5.916
		c2.17-1.624,5.034-2.436,8.592-2.436c3.342,0,6.049,0.812,8.121,2.436s3.108,3.945,3.108,6.96V36.02
		c0,1.258,0.106,2.453,0.323,3.578c0.213,1.127,0.547,2.256,0.996,3.381H130.355z M124.286,38.307c1.093,0,2.071-0.287,2.932-0.858
		c0.859-0.571,1.446-1.263,1.761-2.076v-4.225h-3.607c-1.389,0-2.4,0.381-3.035,1.144c-0.636,0.762-0.953,1.723-0.953,2.883
		c0,0.93,0.264,1.684,0.792,2.262C122.703,38.016,123.406,38.307,124.286,38.307z"/>
	<path fill="#EA3D53" d="M151.232,42.979h-8.27V4.201h8.27V42.979z"/>
	<path fill="#EA3D53" d="M166.831,9.396v6.687h4.312v4.997h-4.312v13.697c0,1.142,0.194,1.953,0.587,2.436
		c0.389,0.48,0.928,0.721,1.613,0.721c0.389,0,0.712-0.021,0.967-0.063c0.253-0.041,0.564-0.111,0.938-0.21l0.646,5.17
		c-0.783,0.23-1.531,0.4-2.243,0.51c-0.714,0.105-1.521,0.161-2.419,0.161c-2.698,0-4.765-0.694-6.202-2.088
		c-1.438-1.392-2.154-3.588-2.154-6.588V21.08h-3.842v-4.997h3.842V9.396H166.831z"/>
</g>
<g>
	<path fill="#FFFFFF" stroke="#FFFFFF" stroke-width="0.5" stroke-miterlimit="10" d="M3.839,52.643l0.103,1.041
		c0.259-0.375,0.588-0.668,0.986-0.875c0.398-0.209,0.861-0.312,1.389-0.312c0.528,0,0.981,0.122,1.36,0.367
		c0.379,0.244,0.664,0.611,0.854,1.1c0.254-0.455,0.585-0.812,0.993-1.074c0.408-0.261,0.886-0.392,1.433-0.392
		c0.807,0,1.444,0.276,1.914,0.832c0.469,0.555,0.704,1.389,0.704,2.503v4.743h-1.444v-4.757c0-0.782-0.134-1.336-0.403-1.661
		s-0.67-0.487-1.202-0.487c-0.494,0-0.894,0.171-1.199,0.514c-0.306,0.342-0.485,0.773-0.539,1.297v0.059v5.036H7.335v-4.757
		c0-0.743-0.138-1.287-0.414-1.631C6.645,53.843,6.248,53.67,5.73,53.67c-0.439,0-0.801,0.09-1.085,0.271
		c-0.283,0.181-0.501,0.435-0.652,0.762v5.872H2.549v-7.933H3.839z"/>
	<path fill="#FFFFFF" stroke="#FFFFFF" stroke-width="0.5" stroke-miterlimit="10" d="M20.545,60.575
		c-0.049-0.239-0.087-0.451-0.113-0.634c-0.027-0.184-0.043-0.368-0.048-0.553c-0.269,0.381-0.62,0.699-1.052,0.956
		c-0.433,0.257-0.898,0.386-1.396,0.386c-0.826,0-1.455-0.211-1.888-0.635c-0.433-0.423-0.649-1.005-0.649-1.748
		c0-0.758,0.307-1.351,0.92-1.777c0.613-0.428,1.445-0.643,2.496-0.643h1.569v-0.783c0-0.465-0.142-0.832-0.425-1.104
		c-0.283-0.271-0.684-0.407-1.202-0.407c-0.469,0-0.848,0.117-1.136,0.352s-0.433,0.517-0.433,0.844l-1.371,0.015l-0.015-0.044
		c-0.034-0.576,0.236-1.104,0.81-1.583c0.574-0.479,1.316-0.718,2.225-0.718c0.899,0,1.623,0.229,2.17,0.686
		c0.547,0.457,0.821,1.115,0.821,1.977v3.818c0,0.285,0.015,0.558,0.044,0.821c0.03,0.265,0.083,0.523,0.162,0.777h-1.489V60.575z
		 M18.148,59.52c0.523,0,0.995-0.135,1.415-0.403s0.694-0.576,0.821-0.923v-1.291h-1.62c-0.582,0-1.047,0.146-1.396,0.439
		c-0.349,0.293-0.524,0.639-0.524,1.034c0,0.353,0.11,0.63,0.33,0.836C17.393,59.417,17.718,59.52,18.148,59.52z"/>
	<path fill="#FFFFFF" stroke="#FFFFFF" stroke-width="0.5" stroke-miterlimit="10" d="M25.933,50.73v1.912h1.503v1.07h-1.503v4.816
		c0,0.371,0.077,0.633,0.231,0.785c0.154,0.151,0.358,0.227,0.612,0.227c0.083,0,0.176-0.011,0.278-0.033
		c0.102-0.021,0.188-0.045,0.257-0.07l0.198,0.99c-0.107,0.088-0.267,0.16-0.477,0.217c-0.21,0.056-0.418,0.084-0.623,0.084
		c-0.586,0-1.053-0.178-1.4-0.531c-0.347-0.354-0.521-0.91-0.521-1.668v-4.816h-1.261v-1.07h1.261V50.73H25.933z"/>
	<path fill="#FFFFFF" stroke="#FFFFFF" stroke-width="0.5" stroke-miterlimit="10" d="M32.266,60.729
		c-1.139,0-2.027-0.363-2.665-1.092c-0.638-0.728-0.957-1.686-0.957-2.873v-0.324c0-1.139,0.329-2.08,0.986-2.825
		c0.657-0.746,1.46-1.118,2.408-1.118c1.061,0,1.856,0.33,2.386,0.99c0.53,0.66,0.795,1.537,0.795,2.631v0.763h-5.073l-0.022,0.037
		c0,0.796,0.176,1.442,0.528,1.938s0.889,0.744,1.612,0.744c0.489,0,0.917-0.068,1.287-0.209c0.369-0.139,0.686-0.33,0.949-0.574
		l0.564,0.938c-0.283,0.273-0.657,0.504-1.122,0.691C33.477,60.634,32.921,60.729,32.266,60.729z M32.039,53.633
		c-0.503,0-0.92,0.194-1.25,0.583c-0.33,0.388-0.531,0.886-0.604,1.492l0.015,0.037h3.577v-0.118c0-0.576-0.142-1.053-0.425-1.429
		C33.068,53.82,32.63,53.633,32.039,53.633z"/>
	<path fill="#FFFFFF" stroke="#FFFFFF" stroke-width="0.5" stroke-miterlimit="10" d="M40.594,53.919l-0.74-0.044
		c-0.381,0-0.703,0.091-0.964,0.271c-0.262,0.181-0.463,0.435-0.605,0.762v5.667h-1.444v-7.933h1.29l0.139,1.158
		c0.225-0.41,0.502-0.73,0.832-0.96s0.71-0.345,1.14-0.345c0.107,0,0.21,0.009,0.308,0.025c0.098,0.018,0.178,0.035,0.242,0.056
		L40.594,53.919z"/>
	<path fill="#FFFFFF" stroke="#FFFFFF" stroke-width="0.5" stroke-miterlimit="10" d="M43.658,50.613h-1.444v-1.475h1.444V50.613z
		 M43.658,60.575h-1.444v-7.933h1.444V60.575z"/>
	<path fill="#FFFFFF" stroke="#FFFFFF" stroke-width="0.5" stroke-miterlimit="10" d="M50.754,60.575
		c-0.049-0.239-0.087-0.451-0.113-0.634c-0.027-0.184-0.043-0.368-0.048-0.553c-0.269,0.381-0.62,0.699-1.052,0.956
		c-0.433,0.257-0.898,0.386-1.396,0.386c-0.826,0-1.455-0.211-1.888-0.635c-0.433-0.423-0.649-1.005-0.649-1.748
		c0-0.758,0.307-1.351,0.92-1.777c0.613-0.428,1.445-0.643,2.496-0.643h1.569v-0.783c0-0.465-0.142-0.832-0.425-1.104
		c-0.283-0.271-0.684-0.407-1.202-0.407c-0.469,0-0.848,0.117-1.136,0.352s-0.433,0.517-0.433,0.844l-1.371,0.015l-0.015-0.044
		c-0.034-0.576,0.236-1.104,0.81-1.583c0.574-0.479,1.316-0.718,2.225-0.718c0.899,0,1.623,0.229,2.17,0.686
		c0.547,0.457,0.821,1.115,0.821,1.977v3.818c0,0.285,0.015,0.558,0.044,0.821c0.03,0.265,0.083,0.523,0.162,0.777h-1.489V60.575z
		 M48.357,59.52c0.523,0,0.995-0.135,1.415-0.403s0.694-0.576,0.821-0.923v-1.291h-1.62c-0.582,0-1.047,0.146-1.396,0.439
		c-0.349,0.293-0.524,0.639-0.524,1.034c0,0.353,0.11,0.63,0.33,0.836C47.602,59.417,47.927,59.52,48.357,59.52z"/>
	<path fill="#FFFFFF" stroke="#FFFFFF" stroke-width="0.5" stroke-miterlimit="10" d="M55.694,60.575H54.25V49.139h1.444V60.575z"/>
	<path fill="#FFFFFF" stroke="#FFFFFF" stroke-width="0.5" stroke-miterlimit="10" d="M61.199,60.729
		c-1.139,0-2.027-0.363-2.665-1.092c-0.638-0.728-0.957-1.686-0.957-2.873v-0.324c0-1.139,0.329-2.08,0.986-2.825
		c0.657-0.746,1.46-1.118,2.408-1.118c1.061,0,1.856,0.33,2.386,0.99c0.53,0.66,0.795,1.537,0.795,2.631v0.763h-5.073l-0.022,0.037
		c0,0.796,0.176,1.442,0.528,1.938s0.889,0.744,1.612,0.744c0.489,0,0.917-0.068,1.287-0.209c0.369-0.139,0.686-0.33,0.949-0.574
		L64,59.754c-0.283,0.273-0.657,0.504-1.122,0.691C62.413,60.634,61.854,60.729,61.199,60.729z M60.972,53.633
		c-0.503,0-0.92,0.194-1.25,0.583c-0.33,0.388-0.531,0.886-0.604,1.492l0.015,0.037h3.577v-0.118c0-0.576-0.142-1.053-0.425-1.429
		C62.001,53.82,61.563,53.633,60.972,53.633z"/>
	<path fill="#FFFFFF" stroke="#FFFFFF" stroke-width="0.5" stroke-miterlimit="10" d="M70.385,58.441
		c0-0.317-0.121-0.577-0.363-0.777s-0.7-0.376-1.375-0.528c-0.934-0.2-1.651-0.48-2.151-0.843c-0.501-0.361-0.751-0.846-0.751-1.452
		c0-0.646,0.275-1.196,0.825-1.657c0.55-0.459,1.262-0.688,2.137-0.688c0.899,0,1.627,0.245,2.185,0.733
		c0.557,0.488,0.823,1.058,0.799,1.707l-0.015,0.045h-1.378c0-0.342-0.15-0.652-0.451-0.932c-0.3-0.279-0.681-0.418-1.14-0.418
		c-0.508,0-0.888,0.115-1.14,0.346c-0.251,0.229-0.377,0.502-0.377,0.82c0,0.312,0.109,0.555,0.326,0.727
		c0.218,0.17,0.666,0.328,1.345,0.469c0.973,0.205,1.71,0.496,2.214,0.873c0.503,0.376,0.755,0.867,0.755,1.473
		c0,0.704-0.285,1.278-0.854,1.723c-0.569,0.445-1.313,0.668-2.232,0.668c-1.012,0-1.808-0.256-2.39-0.771s-0.858-1.112-0.829-1.796
		l0.015-0.044h1.378c0.024,0.513,0.215,0.888,0.572,1.125c0.356,0.237,0.774,0.354,1.253,0.354c0.513,0,0.915-0.107,1.206-0.326
		C70.239,59.057,70.385,58.779,70.385,58.441z"/>
	<path fill="#FFFFFF" stroke="#FFFFFF" stroke-width="0.5" stroke-miterlimit="10" d="M77.026,56.755
		c0-1.274,0.272-2.304,0.817-3.086c0.545-0.782,1.309-1.173,2.291-1.173c0.464,0,0.876,0.085,1.235,0.257
		c0.359,0.171,0.666,0.42,0.92,0.748v-4.362h1.444v11.437h-1.107l-0.22-1.005c-0.259,0.382-0.579,0.671-0.96,0.865
		c-0.381,0.195-0.824,0.293-1.327,0.293c-0.968,0-1.726-0.351-2.272-1.052c-0.547-0.7-0.821-1.624-0.821-2.767V56.755z M78.47,56.91
		c0,0.801,0.164,1.443,0.491,1.924s0.835,0.723,1.524,0.723c0.43,0,0.792-0.099,1.085-0.293c0.293-0.195,0.533-0.47,0.718-0.822
		V54.74c-0.186-0.327-0.426-0.588-0.722-0.781s-0.651-0.29-1.067-0.29c-0.694,0-1.206,0.286-1.536,0.858s-0.495,1.313-0.495,2.228
		v0.155H78.47z"/>
	<path fill="#FFFFFF" stroke="#FFFFFF" stroke-width="0.5" stroke-miterlimit="10" d="M89.172,60.729
		c-1.139,0-2.027-0.363-2.665-1.092c-0.638-0.728-0.957-1.686-0.957-2.873v-0.324c0-1.139,0.329-2.08,0.986-2.825
		c0.657-0.746,1.46-1.118,2.408-1.118c1.061,0,1.856,0.33,2.386,0.99c0.53,0.66,0.795,1.537,0.795,2.631v0.763h-5.073l-0.022,0.037
		c0,0.796,0.176,1.442,0.528,1.938S88.447,59.6,89.17,59.6c0.489,0,0.917-0.068,1.287-0.209c0.369-0.139,0.686-0.33,0.949-0.574
		l0.564,0.938c-0.283,0.273-0.657,0.504-1.122,0.691C90.383,60.634,89.828,60.729,89.172,60.729z M88.945,53.633
		c-0.503,0-0.92,0.194-1.25,0.583c-0.33,0.388-0.531,0.886-0.604,1.492l0.015,0.037h3.577v-0.118c0-0.576-0.142-1.053-0.425-1.429
		C89.974,53.82,89.537,53.633,88.945,53.633z"/>
	<path fill="#FFFFFF" stroke="#FFFFFF" stroke-width="0.5" stroke-miterlimit="10" d="M100.63,59.6c0.445,0,0.833-0.146,1.166-0.442
		s0.499-0.659,0.499-1.089h1.305l0.022,0.045c0.02,0.684-0.273,1.291-0.879,1.82c-0.606,0.53-1.31,0.795-2.111,0.795
		c-1.114,0-1.974-0.377-2.58-1.136c-0.606-0.757-0.909-1.7-0.909-2.829v-0.309c0-1.119,0.304-2.059,0.913-2.818
		c0.608-0.76,1.467-1.14,2.577-1.14c0.885,0,1.609,0.274,2.173,0.821c0.564,0.548,0.837,1.22,0.817,2.016l-0.015,0.044h-1.312
		c0-0.483-0.158-0.896-0.473-1.235c-0.315-0.338-0.712-0.509-1.191-0.509c-0.708,0-1.225,0.275-1.55,0.825s-0.487,1.216-0.487,1.998
		v0.309c0,0.797,0.16,1.469,0.48,2.016C99.392,59.326,99.912,59.6,100.63,59.6z"/>
	<path fill="#FFFFFF" stroke="#FFFFFF" stroke-width="0.5" stroke-miterlimit="10" d="M104.999,56.536
		c0-1.173,0.318-2.14,0.953-2.899c0.635-0.76,1.498-1.14,2.587-1.14c1.1,0,1.968,0.379,2.606,1.136
		c0.638,0.758,0.957,1.725,0.957,2.903v0.161c0,1.183-0.317,2.15-0.953,2.902c-0.635,0.754-1.5,1.129-2.595,1.129
		c-1.095,0-1.961-0.377-2.599-1.131c-0.638-0.756-0.957-1.723-0.957-2.899L104.999,56.536L104.999,56.536z M106.443,56.697
		c0,0.841,0.177,1.535,0.531,2.082s0.881,0.82,1.58,0.82c0.689,0,1.212-0.272,1.569-0.82c0.357-0.549,0.535-1.241,0.535-2.082
		v-0.161c0-0.831-0.18-1.522-0.539-2.075c-0.359-0.552-0.886-0.828-1.58-0.828c-0.689,0-1.21,0.276-1.565,0.828
		c-0.354,0.553-0.531,1.244-0.531,2.075V56.697z"/>
	<path fill="#FFFFFF" stroke="#FFFFFF" stroke-width="0.5" stroke-miterlimit="10" d="M115.159,52.643l0.103,1.181
		c0.264-0.421,0.595-0.746,0.993-0.979c0.398-0.232,0.852-0.348,1.36-0.348c0.855,0,1.518,0.25,1.987,0.751
		c0.469,0.501,0.704,1.274,0.704,2.319v5.008h-1.444v-4.979c0-0.699-0.138-1.195-0.414-1.488c-0.276-0.293-0.698-0.439-1.264-0.439
		c-0.445,0-0.822,0.089-1.133,0.268c-0.311,0.18-0.556,0.43-0.737,0.752v5.886h-1.444v-7.933h1.289V52.643z"/>
	<path fill="#FFFFFF" stroke="#FFFFFF" stroke-width="0.5" stroke-miterlimit="10" d="M127.014,58.441
		c0-0.317-0.121-0.577-0.363-0.777s-0.7-0.376-1.375-0.528c-0.935-0.2-1.651-0.48-2.151-0.843c-0.501-0.361-0.751-0.846-0.751-1.452
		c0-0.646,0.275-1.196,0.824-1.657c0.551-0.459,1.263-0.688,2.138-0.688c0.899,0,1.627,0.245,2.185,0.733s0.823,1.058,0.799,1.707
		l-0.014,0.045h-1.379c0-0.342-0.15-0.652-0.451-0.932c-0.3-0.279-0.681-0.418-1.14-0.418c-0.508,0-0.888,0.115-1.14,0.346
		c-0.252,0.229-0.377,0.502-0.377,0.82c0,0.312,0.109,0.555,0.326,0.727c0.217,0.17,0.666,0.328,1.344,0.469
		c0.974,0.205,1.711,0.496,2.215,0.873c0.503,0.376,0.755,0.867,0.755,1.473c0,0.704-0.285,1.278-0.854,1.723
		c-0.568,0.445-1.312,0.668-2.231,0.668c-1.013,0-1.808-0.256-2.39-0.771s-0.858-1.112-0.83-1.796l0.015-0.044h1.378
		c0.024,0.513,0.216,0.888,0.572,1.125s0.774,0.354,1.253,0.354c0.513,0,0.915-0.107,1.206-0.326
		C126.867,59.057,127.014,58.779,127.014,58.441z"/>
	<path fill="#FFFFFF" stroke="#FFFFFF" stroke-width="0.5" stroke-miterlimit="10" d="M132.262,50.73v1.912h1.502v1.07h-1.502v4.816
		c0,0.371,0.076,0.633,0.23,0.785c0.154,0.151,0.357,0.227,0.611,0.227c0.084,0,0.176-0.011,0.278-0.033
		c0.103-0.021,0.188-0.045,0.257-0.07l0.198,0.99c-0.106,0.088-0.267,0.16-0.478,0.217c-0.209,0.056-0.418,0.084-0.623,0.084
		c-0.586,0-1.053-0.178-1.399-0.531c-0.347-0.354-0.521-0.91-0.521-1.668v-4.816h-1.262v-1.07h1.262V50.73H132.262z"/>
	<path fill="#FFFFFF" stroke="#FFFFFF" stroke-width="0.5" stroke-miterlimit="10" d="M139.064,53.919l-0.74-0.044
		c-0.381,0-0.703,0.091-0.965,0.271s-0.463,0.435-0.604,0.762v5.667h-1.444v-7.933h1.291l0.139,1.158
		c0.225-0.41,0.502-0.73,0.832-0.96s0.71-0.345,1.14-0.345c0.106,0,0.21,0.009,0.308,0.025c0.099,0.018,0.178,0.035,0.242,0.056
		L139.064,53.919z"/>
	<path fill="#FFFFFF" stroke="#FFFFFF" stroke-width="0.5" stroke-miterlimit="10" d="M145.604,59.402
		c-0.25,0.425-0.569,0.752-0.961,0.981c-0.391,0.229-0.843,0.345-1.355,0.345c-0.865,0-1.539-0.276-2.023-0.828
		c-0.484-0.553-0.726-1.412-0.726-2.582v-4.676h1.444v4.69c0,0.847,0.125,1.427,0.373,1.745c0.25,0.318,0.639,0.477,1.166,0.477
		c0.514,0,0.938-0.104,1.272-0.312c0.334-0.208,0.587-0.502,0.758-0.884v-5.717h1.444v7.932h-1.297L145.604,59.402z"/>
	<path fill="#FFFFFF" stroke="#FFFFFF" stroke-width="0.5" stroke-miterlimit="10" d="M152.251,59.6
		c0.444,0,0.833-0.146,1.166-0.442s0.499-0.659,0.499-1.089h1.305l0.022,0.045c0.021,0.684-0.272,1.291-0.88,1.82
		c-0.605,0.53-1.309,0.795-2.11,0.795c-1.114,0-1.974-0.377-2.58-1.136c-0.606-0.757-0.909-1.7-0.909-2.829v-0.309
		c0-1.119,0.305-2.059,0.913-2.818s1.468-1.14,2.577-1.14c0.885,0,1.609,0.274,2.173,0.821c0.564,0.548,0.837,1.22,0.817,2.016
		l-0.016,0.044h-1.312c0-0.483-0.158-0.896-0.474-1.235c-0.314-0.338-0.711-0.509-1.19-0.509c-0.708,0-1.226,0.275-1.55,0.825
		c-0.325,0.55-0.487,1.216-0.487,1.998v0.309c0,0.797,0.16,1.469,0.479,2.016C151.014,59.326,151.533,59.6,152.251,59.6z"/>
	<path fill="#FFFFFF" stroke="#FFFFFF" stroke-width="0.5" stroke-miterlimit="10" d="M160.109,59.6
		c0.445,0,0.834-0.146,1.166-0.442c0.334-0.296,0.5-0.659,0.5-1.089h1.305l0.021,0.045c0.021,0.684-0.272,1.291-0.879,1.82
		c-0.605,0.53-1.31,0.795-2.111,0.795c-1.113,0-1.973-0.377-2.579-1.136c-0.606-0.757-0.909-1.7-0.909-2.829v-0.309
		c0-1.119,0.305-2.059,0.913-2.818s1.467-1.14,2.577-1.14c0.885,0,1.609,0.274,2.173,0.821c0.563,0.548,0.837,1.22,0.817,2.016
		l-0.016,0.044h-1.312c0-0.483-0.157-0.896-0.473-1.235c-0.314-0.338-0.712-0.509-1.191-0.509c-0.707,0-1.225,0.275-1.549,0.825
		c-0.326,0.55-0.487,1.216-0.487,1.998v0.309c0,0.797,0.159,1.469,0.479,2.016C158.872,59.326,159.393,59.6,160.109,59.6z"/>
	<path fill="#FFFFFF" stroke="#FFFFFF" stroke-width="0.5" stroke-miterlimit="10" d="M166.377,50.613h-1.443v-1.475h1.443V50.613z
		 M166.377,60.575h-1.443v-7.933h1.443V60.575z"/>
	<path fill="#FFFFFF" stroke="#FFFFFF" stroke-width="0.5" stroke-miterlimit="10" d="M168.262,56.536
		c0-1.173,0.318-2.14,0.953-2.899s1.498-1.14,2.588-1.14c1.1,0,1.967,0.379,2.605,1.136c0.638,0.758,0.957,1.725,0.957,2.903v0.161
		c0,1.183-0.317,2.15-0.953,2.902c-0.635,0.754-1.5,1.129-2.596,1.129c-1.094,0-1.961-0.377-2.599-1.131
		c-0.638-0.756-0.956-1.723-0.956-2.899V56.536L168.262,56.536z M169.706,56.697c0,0.841,0.177,1.535,0.53,2.082
		c0.354,0.547,0.882,0.82,1.58,0.82c0.689,0,1.213-0.272,1.57-0.82c0.356-0.549,0.534-1.241,0.534-2.082v-0.161
		c0-0.831-0.18-1.522-0.539-2.075c-0.358-0.552-0.886-0.828-1.579-0.828c-0.689,0-1.211,0.276-1.566,0.828
		c-0.354,0.553-0.53,1.244-0.53,2.075V56.697z M172.514,49.279h1.687l0.015,0.044l-1.972,1.905h-1.085L172.514,49.279z"/>
	<path fill="#FFFFFF" stroke="#FFFFFF" stroke-width="0.5" stroke-miterlimit="10" d="M178.422,52.643l0.104,1.181
		c0.264-0.421,0.595-0.746,0.992-0.979c0.398-0.232,0.853-0.348,1.36-0.348c0.854,0,1.519,0.25,1.987,0.751s0.703,1.274,0.703,2.319
		v5.008h-1.443v-4.979c0-0.699-0.139-1.195-0.414-1.488s-0.697-0.439-1.264-0.439c-0.445,0-0.822,0.089-1.133,0.268
		c-0.312,0.18-0.557,0.43-0.737,0.752v5.886h-1.444v-7.933h1.289V52.643z"/>
</g>
</svg>
